# xmcd
#
# Track frame offsets:
#	150
#	25754
#	59022
#	88000
#	128999
#	152444
#	189507
#	217591
#
# Disc length: 3458 seconds
#
# Revision: 0
# Processed by: cddbd v1.5.2PL0 Copyright (c) Steve Scherf et al.
# Submitted via: audiograbber 1.83.01
#
DISCID=610d8008
DTITLE=Grateful Dead - 93-12-18 Oakland Coliseum Arena, Oakland CA
DYEAR=1900
DGENRE=
TTITLE0=Jack Straw
TTITLE1=They Love Each Other
TTITLE2=Spoonful
TTITLE3=Friend Of The Devil
TTITLE4=When I Paint My Masterpiece
TTITLE5=Tennessee Jed
TTITLE6=Easy Answers
TTITLE7=Deal
EXTD=
EXTT0=
EXTT1=
EXTT2=
EXTT3=
EXTT4=
EXTT5=
EXTT6=
EXTT7=
PLAYORDER=
